<?xml version="1.0" encoding="UTF-8"?>
<svg id="Layer_1" data-name="Layer 1" xmlns="http://www.w3.org/2000/svg" viewBox="0 0 160 160">
  <defs>
    <style>
      .cls-1 {
        fill: #fff;
      }
    </style>
  </defs>
  <path class="cls-1" d="M91.76,4.98v1.27c-9.55,11.36-23.42,26.44-23.42,42.43,0,11.06,6.66,21.33,13.92,30.35,8.86,6.93,18.88,13.04,29.42,13.04,16.01,0,30.52-14.09,41.88-23.61h1.24v1.27c-9.52,11.36-23.39,26.44-23.39,42.43s13.87,30.24,23.39,41.63v1.24h-1.24c-11.39-9.52-26.25-23.53-42.24-23.53s-30.46,14.01-41.83,23.53h-1.27v-1.27c9.55-11.36,24.46-26,24.46-41.99,0-10.95-7.02-21.33-14.5-30.41-9-7.04-19.21-13.35-29.94-13.35-15.99,0-30.46,14.01-41.83,23.53h-1.24v-1.27c9.52-11.36,24.46-25.98,24.46-41.96S14.72,17.61,5.2,6.21v-1.24h1.24c11.39,9.52,26.22,23.61,42.21,23.61s30.49-14.09,41.85-23.61h1.27M92.76,3.98h-2.63l-.28.23c-1.24,1.04-2.52,2.14-3.84,3.26-10.47,8.96-23.5,20.11-37.37,20.11S21.26,16.25,10.54,7.14c-1.19-1.01-2.34-1.99-3.47-2.93l-.28-.23h-2.6v2.6l.23.28c1.31,1.57,2.71,3.18,4.19,4.89,8.93,10.3,20.04,23.13,20.04,36.57s-11.09,26.15-20,36.4c-1.49,1.72-2.9,3.34-4.23,4.92l-.23.28v2.63h2.6l.28-.23c1.21-1.02,2.46-2.09,3.75-3.18,10.48-8.96,23.52-20.11,37.43-20.11,11.08,0,21.44,6.97,29.24,13.07,12.59,15.3,14.2,23.9,14.2,29.69,0,13.45-11.14,26.26-20.1,36.55-1.46,1.67-2.83,3.26-4.13,4.8l-.23.28v2.63h2.63l.28-.23c1.21-1.02,2.46-2.09,3.75-3.18,10.48-8.96,23.52-20.11,37.43-20.11s27.53,11.38,38.31,20.52c1.13.96,2.22,1.89,3.29,2.78l.28.23h2.6v-2.6l-.23-.28c-1.05-1.26-2.16-2.55-3.29-3.88-8.85-10.36-19.86-23.26-19.86-37.11s11.59-28.11,20.91-39.13c.77-.91,1.52-1.8,2.24-2.66l.23-.28v-2.63h-2.6l-.28.23c-1.24,1.04-2.52,2.14-3.84,3.26-10.47,8.96-23.5,20.12-37.4,20.12-11.07,0-21.67-7.26-28.71-12.76-6.36-7.92-13.63-18.42-13.63-29.63,0-14.44,11.64-28.17,20.99-39.2.75-.88,1.48-1.75,2.19-2.59l.23-.28v-2.63h0Z"/>
  <g>
    <path class="cls-1" d="M90.32,155.52l-.14-.12c-1.07-.89-2.17-1.82-3.29-2.78-10.84-9.19-24.32-20.63-38.63-20.63s-27.22,11.22-37.76,20.23c-1.28,1.1-2.53,2.16-3.74,3.18l-.14.12h-1.92v-1.95l.12-.14c1.31-1.57,2.73-3.2,4.2-4.89,8.98-10.33,20.15-23.19,20.15-36.78s-11.22-26.57-20.23-36.96c-1.44-1.66-2.83-3.26-4.11-4.79l-.12-.14v-1.92h1.92l.14.12c1.12.94,2.28,1.92,3.46,2.93,10.78,9.16,24.19,20.56,38.42,20.56,11.15,0,21.38-6.98,29.06-13.07,7.17-8.69,14.49-19.08,14.49-30.19,0-13.67-11.22-26.6-20.24-36.99-1.43-1.65-2.82-3.25-4.11-4.79l-.12-.14v-1.92h1.95l.14.12c1.13.95,2.3,1.94,3.5,2.96,10.76,9.15,24.15,20.53,38.36,20.53s27.19-11.22,37.73-20.23c1.31-1.12,2.59-2.22,3.83-3.26l.14-.12h1.92v1.95l-.12.14c-.72.86-1.47,1.75-2.24,2.66-9.37,11.08-21.03,24.86-21.03,39.45s11.12,27.08,20.06,37.53c1.1,1.29,2.18,2.55,3.21,3.78l.12.14v1.92h-1.92l-.14-.12c-1.07-.89-2.17-1.82-3.29-2.78-10.83-9.19-24.32-20.63-38.63-20.63-10.81,0-20.68,6.53-28.07,12.24-6.72,8.45-14.41,19.64-14.41,31.4,0,14.07,11.12,27.06,20.06,37.5,1.12,1.3,2.2,2.58,3.24,3.81l.12.14v1.92h-1.95Z"/>
    <path class="cls-1" d="M154.8,4.98v1.27c-9.52,11.36-23.39,26.44-23.39,42.43s13.87,30.27,23.39,41.63v1.24h-1.24c-11.39-9.52-26.25-23.53-42.24-23.53-10.24,0-19.84,5.75-28.42,12.38-7.51,9.44-14.56,20.36-14.56,31.75,0,15.99,13.87,30.24,23.42,41.63v1.24h-1.27c-11.39-9.52-26.25-23.53-42.24-23.53s-30.46,14.01-41.83,23.53h-1.24v-1.27c9.52-11.36,24.46-26,24.46-41.99s-14.94-30.71-24.46-42.07v-1.24h1.24c11.39,9.52,26.22,23.61,42.21,23.61,10.62,0,20.61-6.22,29.42-13.21,7.54-9.14,14.64-19.51,14.64-30.54,0-16.01-14.91-30.71-24.46-42.1v-1.24h1.27c11.39,9.52,26.2,23.61,42.18,23.61s30.52-14.09,41.88-23.61h1.24M155.8,3.98h-2.6l-.28.23c-1.24,1.04-2.52,2.14-3.84,3.26-10.47,8.96-23.5,20.12-37.4,20.12s-27.34-11.32-38.04-20.41c-1.2-1.02-2.37-2.01-3.5-2.96l-.28-.23h-2.63v2.6l.23.28c1.29,1.54,2.66,3.12,4.11,4.79,8.96,10.33,20.12,23.18,20.12,36.67,0,10.93-7.24,21.21-14.34,29.83-7.61,6.03-17.74,12.93-28.71,12.93-14.05,0-27.39-11.34-38.1-20.45-1.19-1.01-2.34-1.99-3.47-2.93l-.28-.23h-2.6v2.6l.23.28c1.29,1.54,2.67,3.13,4.12,4.8,8.96,10.33,20.11,23.18,20.11,36.63s-11.1,26.19-20.03,36.46c-1.48,1.71-2.89,3.32-4.2,4.89l-.23.28v2.63h2.6l.28-.23c1.21-1.02,2.46-2.09,3.75-3.18,10.48-8.96,23.52-20.11,37.43-20.11s27.53,11.38,38.31,20.52c1.13.96,2.22,1.89,3.29,2.78l.28.23h2.63v-2.6l-.23-.28c-1.04-1.24-2.13-2.51-3.25-3.82-8.88-10.38-19.94-23.29-19.94-37.17,0-11.58,7.61-22.66,14.26-31.04,7.33-5.65,17.08-12.1,27.72-12.1,14.13,0,27.53,11.38,38.31,20.52,1.13.96,2.22,1.89,3.29,2.78l.28.23h2.6v-2.6l-.23-.28c-1.03-1.23-2.11-2.49-3.22-3.79-8.88-10.39-19.94-23.31-19.94-37.21s11.59-28.11,20.91-39.13c.77-.91,1.52-1.8,2.24-2.66l.23-.28v-2.63h0Z"/>
  </g>
</svg>