<?xml version="1.0" encoding="UTF-8"?>
<svg id="Layer_1" data-name="Layer 1" xmlns="http://www.w3.org/2000/svg" viewBox="0 0 160 160">
  <path d="M91.87,4.31v1.28c-9.63,11.46-23.62,26.68-23.62,42.81,0,11.16,6.72,21.51,14.05,30.62,8.94,7,19.04,13.16,29.68,13.16,16.16,0,30.79-14.21,42.25-23.82h1.25v1.28c-9.6,11.46-23.6,26.68-23.6,42.81s13.99,30.51,23.6,42v1.25h-1.25c-11.49-9.6-26.48-23.73-42.61-23.73s-30.73,14.13-42.19,23.73h-1.28v-1.28c9.63-11.46,24.68-26.23,24.68-42.36,0-11.05-7.08-21.51-14.63-30.67-9.08-7.11-19.38-13.46-30.2-13.46-16.13,0-30.73,14.13-42.19,23.73h-1.25v-1.28c9.6-11.46,24.68-26.21,24.68-42.33S14.14,17.05,4.54,5.56v-1.25h1.25c11.49,9.6,26.45,23.82,42.58,23.82s30.76-14.21,42.22-23.82h1.28M92.87,3.31h-2.64l-.28.23c-1.25,1.05-2.55,2.16-3.87,3.29-10.56,9.04-23.71,20.29-37.71,20.29S20.74,15.69,9.92,6.5c-1.2-1.02-2.36-2.01-3.5-2.96l-.28-.23h-2.61v2.61l.23.28c1.32,1.58,2.73,3.21,4.22,4.93,9.01,10.4,20.22,23.34,20.22,36.9s-11.19,26.39-20.18,36.72c-1.51,1.73-2.93,3.37-4.27,4.97l-.23.28v2.64h2.61l.28-.23c1.23-1.03,2.49-2.1,3.78-3.21,10.57-9.04,23.73-20.29,37.77-20.29,11.18,0,21.63,7.03,29.5,13.18,12.7,15.43,14.33,24.11,14.33,29.95,0,13.57-11.24,26.49-20.28,36.88-1.47,1.69-2.86,3.28-4.17,4.84l-.23.28v2.64h2.64l.28-.23c1.23-1.03,2.49-2.1,3.78-3.21,10.57-9.04,23.73-20.29,37.77-20.29s27.78,11.48,38.65,20.7c1.14.96,2.24,1.9,3.32,2.8l.28.23h2.61v-2.61l-.23-.28c-1.06-1.27-2.18-2.58-3.32-3.92-8.93-10.45-20.04-23.46-20.04-37.44s11.7-28.36,21.1-39.48c.77-.92,1.53-1.81,2.26-2.69l.23-.28v-2.64h-2.61l-.28.23c-1.25,1.05-2.54,2.15-3.87,3.29-10.57,9.04-23.71,20.3-37.74,20.3-11.17,0-21.87-7.33-28.97-12.87-6.42-7.99-13.75-18.59-13.75-29.9,0-14.57,11.75-28.42,21.18-39.55.75-.89,1.49-1.76,2.21-2.61l.23-.28v-2.64h0Z"></path>
  <g>
    <path d="M90.41,156.19l-.14-.12c-1.08-.9-2.18-1.84-3.32-2.8-10.93-9.27-24.54-20.82-38.97-20.82s-27.46,11.32-38.09,20.41c-1.29,1.11-2.55,2.18-3.78,3.21l-.14.12h-1.93v-1.96l.12-.14c1.33-1.58,2.75-3.23,4.23-4.93,9.06-10.42,20.33-23.39,20.33-37.11s-11.32-26.8-20.41-37.29c-1.45-1.67-2.85-3.29-4.15-4.84l-.12-.14v-1.93h1.93l.14.12c1.13.95,2.3,1.94,3.49,2.95,10.88,9.24,24.41,20.75,38.77,20.75,11.25,0,21.57-7.04,29.32-13.18,7.24-8.77,14.62-19.25,14.62-30.45,0-13.79-11.32-26.84-20.42-37.32-1.45-1.67-2.85-3.28-4.15-4.83l-.12-.14v-1.93h1.96l.14.12c1.14.96,2.32,1.96,3.53,2.99,10.85,9.23,24.36,20.72,38.7,20.72s27.44-11.32,38.06-20.42c1.33-1.13,2.61-2.24,3.87-3.29l.14-.12h1.93v1.96l-.12.14c-.73.87-1.49,1.77-2.26,2.68-9.45,11.17-21.21,25.08-21.21,39.8s11.22,27.32,20.24,37.86c1.12,1.3,2.2,2.58,3.24,3.81l.12.14v1.93h-1.93l-.14-.12c-1.08-.9-2.18-1.84-3.31-2.8-10.93-9.28-24.54-20.82-38.98-20.82-10.91,0-20.86,6.59-28.32,12.35-6.78,8.52-14.54,19.81-14.54,31.68,0,14.19,11.22,27.3,20.24,37.83,1.13,1.32,2.22,2.6,3.27,3.85l.12.14v1.93h-1.96Z"></path>
    <path d="M155.46,4.31v1.28c-9.6,11.46-23.6,26.68-23.6,42.81s13.99,30.54,23.6,42v1.25h-1.25c-11.49-9.6-26.48-23.73-42.61-23.73-10.33,0-20.01,5.8-28.68,12.49-7.58,9.52-14.68,20.54-14.68,32.03,0,16.13,13.99,30.51,23.62,42v1.25h-1.28c-11.49-9.6-26.48-23.73-42.61-23.73s-30.73,14.13-42.19,23.73h-1.25v-1.28c9.6-11.46,24.68-26.23,24.68-42.36s-15.07-30.98-24.68-42.44v-1.25h1.25c11.49,9.6,26.45,23.82,42.58,23.82,10.72,0,20.79-6.27,29.68-13.32,7.61-9.22,14.77-19.68,14.77-30.81,0-16.16-15.05-30.98-24.68-42.47v-1.25h1.28c11.49,9.6,26.43,23.82,42.56,23.82s30.79-14.21,42.25-23.82h1.25M156.46,3.31h-2.61l-.28.23c-1.25,1.05-2.54,2.15-3.87,3.29-10.57,9.04-23.71,20.3-37.74,20.3s-27.59-11.42-38.38-20.6c-1.21-1.03-2.39-2.03-3.53-2.99l-.28-.23h-2.64v2.61l.23.28c1.3,1.55,2.69,3.15,4.15,4.83,9.04,10.42,20.3,23.39,20.3,37,0,11.03-7.3,21.4-14.47,30.1-7.68,6.09-17.9,13.04-28.97,13.04-14.17,0-27.63-11.44-38.45-20.63-1.2-1.02-2.36-2.01-3.5-2.96l-.28-.23h-2.61v2.61l.23.28c1.3,1.56,2.69,3.15,4.16,4.84,9.04,10.42,20.29,23.38,20.29,36.96s-11.2,26.42-20.2,36.78c-1.5,1.72-2.91,3.35-4.24,4.94l-.23.28v2.64h2.61l.28-.23c1.23-1.03,2.49-2.1,3.78-3.21,10.57-9.04,23.73-20.29,37.77-20.29s27.78,11.48,38.65,20.7c1.14.96,2.24,1.9,3.32,2.8l.28.23h2.64v-2.61l-.23-.28c-1.05-1.25-2.15-2.54-3.28-3.85-8.96-10.47-20.11-23.5-20.11-37.51,0-11.69,7.67-22.87,14.39-31.32,7.39-5.7,17.24-12.21,27.97-12.21,14.25,0,27.78,11.48,38.65,20.7,1.14.96,2.24,1.9,3.32,2.8l.28.23h2.61v-2.61l-.23-.28c-1.04-1.24-2.13-2.51-3.24-3.82-8.96-10.48-20.12-23.52-20.12-37.54s11.7-28.36,21.1-39.48c.77-.92,1.53-1.81,2.26-2.69l.23-.28v-2.64h0Z"></path>
  </g>
</svg>