<?xml version="1.0" encoding="UTF-8"?>
<svg id="Layer_1" data-name="Layer 1" xmlns="http://www.w3.org/2000/svg" viewBox="0 0 160 160">
  <path d="M78.08,57.84v.46c-3.47,4.13-8.51,9.61-8.51,15.42,0,4.02,2.42,7.75,5.06,11.03,3.22,2.52,6.86,4.74,10.69,4.74,5.82,0,11.09-5.12,15.22-8.58h.45v.46c-3.46,4.13-8.5,9.61-8.5,15.42s5.04,10.99,8.5,15.13v.45h-.45c-4.14-3.46-9.54-8.55-15.35-8.55s-11.07,5.09-15.2,8.55h-.46v-.46c3.47-4.13,8.89-9.45,8.89-15.26,0-3.98-2.55-7.75-5.27-11.05-3.27-2.56-6.98-4.85-10.88-4.85-5.81,0-11.07,5.09-15.2,8.55h-.45v-.46c3.46-4.13,8.89-9.44,8.89-15.25s-5.43-11.16-8.89-15.3v-.45h.45c4.14,3.46,9.53,8.58,15.34,8.58s11.08-5.12,15.21-8.58h.46M79.08,56.84h-1.82l-.28.23c-.45.38-.92.78-1.4,1.19-3.72,3.19-8.36,7.16-13.17,7.16s-9.62-4.04-13.44-7.28c-.43-.37-.85-.73-1.26-1.07l-.28-.23h-1.81v1.81l.23.28c.48.57.99,1.17,1.53,1.78,3.18,3.66,7.13,8.23,7.13,12.87s-3.94,9.17-7.11,12.81c-.54.62-1.06,1.22-1.54,1.8l-.23.28v1.82h1.81l.28-.23c.44-.37.9-.76,1.37-1.16,3.73-3.19,8.37-7.16,13.19-7.16,3.81,0,7.43,2.43,10.18,4.57,2.33,2.84,4.97,6.56,4.97,10.33,0,4.65-3.96,9.2-7.15,12.86-.53.61-1.04,1.19-1.51,1.75l-.23.28v1.82h1.82l.28-.23c.44-.37.9-.76,1.37-1.16,3.73-3.19,8.37-7.16,13.19-7.16s9.67,4.05,13.51,7.3c.41.35.81.69,1.2,1.01l.28.23h1.81v-1.81l-.23-.28c-.38-.46-.79-.93-1.2-1.42-3.15-3.69-7.07-8.27-7.07-13.07s4.13-9.88,7.45-13.81c.28-.33.55-.65.82-.97l.23-.28v-1.82h-1.81l-.28.23c-.45.38-.92.78-1.4,1.19-3.73,3.19-8.36,7.16-13.18,7.16-3.8,0-7.5-2.52-9.98-4.46-2.24-2.79-4.77-6.46-4.77-10.31,0-5.01,4.15-9.9,7.48-13.83.27-.32.54-.64.8-.94l.23-.28v-1.82h0Z"></path>
  <g>
    <path d="M77.44,112.87s-.93-.78-1.34-1.13c-3.9-3.31-8.75-7.42-13.83-7.42s-9.72,4.03-13.51,7.27c-.47.4-.92.79-1.36,1.16l-.14.12h-1.13v-1.14l.12-.14c.48-.57.99-1.17,1.53-1.78,3.23-3.71,7.24-8.34,7.24-13.16s-4.03-9.49-7.27-13.22c-.52-.6-1.03-1.19-1.5-1.75l-.12-.14v-1.13h1.13s.97.82,1.4,1.18c3.88,3.3,8.7,7.4,13.76,7.4,3.94,0,7.59-2.48,10.34-4.66,2.56-3.11,5.17-6.82,5.17-10.74,0-4.85-4.03-9.5-7.28-13.23-.52-.6-1.03-1.18-1.5-1.74l-.12-.14v-1.13h1.14l.14.12c.41.34.84.71,1.27,1.08,3.87,3.29,8.69,7.39,13.74,7.39s9.72-4.04,13.5-7.28c.48-.41.94-.81,1.39-1.19l.14-.12h1.13v1.14l-.93,1.11c-3.37,3.99-7.57,8.95-7.57,14.13s4,9.67,7.21,13.43c.4.47.79.93,1.17,1.38l.12.14v1.13h-1.13s-.92-.78-1.33-1.13c-3.9-3.31-8.75-7.42-13.83-7.42-3.82,0-7.33,2.32-9.98,4.36-2.4,3.03-5.14,7.02-5.14,11.18,0,5,4,9.67,7.21,13.42.41.47.8.94,1.18,1.39l.12.14v1.13h-1.14Z"></path>
    <path d="M100.99,57.84v.46c-3.46,4.13-8.5,9.61-8.5,15.42s5.04,11,8.5,15.13v.45h-.45c-4.14-3.46-9.54-8.55-15.35-8.55-3.72,0-7.21,2.09-10.33,4.5-2.73,3.43-5.29,7.4-5.29,11.54,0,5.81,5.04,10.99,8.51,15.13v.45h-.46c-4.14-3.46-9.54-8.55-15.35-8.55s-11.07,5.09-15.2,8.55h-.45v-.46c3.46-4.13,8.89-9.45,8.89-15.26s-5.43-11.16-8.89-15.29v-.45h.45c4.14,3.46,9.53,8.58,15.34,8.58,3.86,0,7.49-2.26,10.69-4.8,2.74-3.32,5.32-7.09,5.32-11.1,0-5.82-5.42-11.16-8.89-15.3v-.45h.46c4.14,3.46,9.52,8.58,15.33,8.58s11.09-5.12,15.22-8.58h.45M101.99,56.84h-1.81l-.28.23c-.45.38-.92.78-1.4,1.19-3.73,3.19-8.36,7.16-13.18,7.16s-9.6-4.03-13.41-7.27c-.44-.37-.86-.73-1.28-1.08l-.28-.23h-1.82v1.81l.23.28c.47.56.98,1.15,1.5,1.75,3.19,3.67,7.15,8.25,7.15,12.91,0,3.75-2.53,7.35-5.02,10.38-2.68,2.12-6.22,4.52-9.99,4.52-4.87,0-9.62-4.04-13.44-7.28-.43-.37-.85-.73-1.26-1.07l-.28-.23h-1.81v1.81l.23.28c.47.56.98,1.15,1.5,1.75,3.19,3.67,7.15,8.24,7.15,12.89s-3.95,9.18-7.12,12.83c-.54.62-1.05,1.21-1.53,1.79l-.23.28v1.82h1.81l.28-.23c.44-.37.9-.76,1.37-1.16,3.73-3.19,8.37-7.16,13.19-7.16s9.67,4.05,13.51,7.3c.41.35.81.69,1.2,1.01l.28.23h1.82v-1.81l-.23-.28c-.38-.45-.78-.92-1.18-1.39-3.16-3.69-7.09-8.29-7.09-13.09,0-3.98,2.65-7.87,5-10.82,2.58-1.98,5.98-4.22,9.62-4.22,4.9,0,9.67,4.05,13.51,7.3.41.35.81.69,1.2,1.01l.28.23h1.81v-1.81l-.23-.28c-.38-.45-.77-.91-1.17-1.38-3.16-3.69-7.09-8.29-7.09-13.11s4.13-9.88,7.45-13.81c.28-.33.55-.65.82-.97l.23-.28v-1.82h0Z"></path>
  </g>
</svg>